<svg width="161" height="169" viewBox="0 0 161 169" fill="none" xmlns="http://www.w3.org/2000/svg">
<path d="M87.8503 94.135C87.5803 94.135 87.3103 94.055 87.0803 93.875C75.1303 84.895 62.3703 81.105 48.0703 82.285C27.0503 84.025 11.5703 71.525 11.4303 71.395C10.8903 70.935 10.8403 70.125 11.3003 69.585C11.7603 69.055 12.5703 68.995 13.1003 69.455C13.2403 69.575 28.0403 81.375 47.8603 79.725C62.6203 78.495 76.3303 82.565 88.6203 91.815C89.1903 92.245 89.3003 93.045 88.8703 93.605C88.6203 93.935 88.2303 94.115 87.8503 94.115V94.135Z" fill="#52BB86"/>
<path d="M59.6203 82.355C59.0303 82.355 58.5003 81.945 58.3703 81.355C58.2203 80.665 58.6503 79.985 59.3403 79.825C59.5303 79.785 78.0003 75.635 85.3403 70.715C85.9303 70.325 86.7203 70.475 87.1203 71.065C87.5103 71.655 87.3603 72.445 86.7703 72.845C79.0303 78.045 60.6703 82.155 59.9003 82.335C59.8103 82.355 59.7103 82.365 59.6203 82.365V82.355Z" fill="#52BB86"/>
<path d="M86.2703 72.845C85.7703 72.845 85.3003 72.555 85.0903 72.065C84.8103 71.415 85.1103 70.665 85.7603 70.385C85.8303 70.355 93.0703 67.225 101.63 61.315C102.21 60.915 103.01 61.055 103.41 61.645C103.81 62.225 103.67 63.025 103.08 63.425C94.3003 69.485 87.0703 72.615 86.7603 72.745C86.6003 72.815 86.4303 72.845 86.2603 72.845H86.2703Z" fill="#52BB86"/>
<path d="M103.88 79.475C103.7 79.475 103.52 79.435 103.35 79.365C93.8803 75.075 86.1903 73.285 86.1203 73.265C85.4303 73.105 85.0003 72.415 85.1603 71.735C85.3203 71.045 86.0103 70.615 86.6903 70.775C87.0103 70.845 94.6803 72.635 104.41 77.035C105.05 77.325 105.34 78.085 105.05 78.725C104.84 79.195 104.37 79.475 103.88 79.475Z" fill="#52BB86"/>
<path d="M102.5 63.355C102.1 63.355 101.7 63.165 101.45 62.805C101.05 62.225 101.19 61.425 101.77 61.025C101.83 60.985 108.28 56.435 115.46 48.915C115.95 48.405 116.76 48.385 117.27 48.875C117.78 49.365 117.8 50.175 117.31 50.685C109.94 58.405 103.5 62.935 103.23 63.125C103.01 63.285 102.75 63.355 102.5 63.355Z" fill="#52BB86"/>
<path d="M102.4 63.715C101.85 63.715 101.35 63.365 101.18 62.815C100.97 62.135 101.35 61.425 102.03 61.215C102.35 61.115 109.88 58.825 120.5 57.775C121.2 57.715 121.83 58.215 121.9 58.925C121.97 59.625 121.46 60.255 120.75 60.325C110.4 61.345 102.85 63.635 102.78 63.665C102.66 63.705 102.53 63.725 102.4 63.725V63.715Z" fill="#52BB86"/>
<path d="M116.08 80.205C108.99 80.205 104.24 79.545 103.99 79.515C103.29 79.415 102.8 78.765 102.9 78.065C103 77.365 103.65 76.885 104.35 76.975C104.43 76.985 112.25 78.065 122.62 77.455C123.33 77.415 123.93 77.955 123.97 78.655C124.01 79.365 123.47 79.965 122.77 80.005C120.38 80.145 118.13 80.205 116.08 80.205Z" fill="#52BB86"/>
<path d="M119.49 89.665C119.22 89.665 118.95 89.575 118.71 89.405C110.44 83.095 103.36 79.625 103.29 79.595C102.65 79.285 102.39 78.515 102.7 77.885C103.01 77.245 103.77 76.985 104.41 77.295C104.71 77.435 111.78 80.905 120.27 87.375C120.83 87.805 120.94 88.605 120.51 89.165C120.26 89.495 119.88 89.665 119.49 89.665Z" fill="#52BB86"/>
<path d="M116.49 50.965C116.14 50.965 115.79 50.8251 115.53 50.535C115.06 50.005 115.1 49.195 115.63 48.725C115.69 48.675 121.55 43.3951 127.77 35.055C128.19 34.485 129 34.3751 129.56 34.7951C130.13 35.2151 130.24 36.025 129.82 36.585C123.44 45.135 117.58 50.405 117.34 50.625C117.1 50.845 116.79 50.9551 116.49 50.9551V50.965Z" fill="#52BB86"/>
<path d="M116.43 51.325C115.94 51.325 115.47 51.045 115.26 50.565C114.97 49.915 115.26 49.165 115.91 48.875C116.21 48.745 123.42 45.565 133.84 43.245C134.54 43.095 135.22 43.525 135.37 44.215C135.52 44.905 135.09 45.585 134.4 45.745C124.25 48.005 117.03 51.185 116.96 51.215C116.79 51.295 116.62 51.325 116.44 51.325H116.43Z" fill="#52BB86"/>
<path d="M128.84 36.785C128.58 36.785 128.31 36.705 128.08 36.535C127.51 36.115 127.39 35.315 127.81 34.745C127.86 34.685 132.52 28.315 136.91 18.895C137.21 18.255 137.97 17.975 138.61 18.275C139.25 18.575 139.53 19.335 139.23 19.975C134.72 29.645 130.06 35.995 129.87 36.265C129.62 36.605 129.23 36.785 128.84 36.785Z" fill="#52BB86"/>
<path d="M128.85 37.155C128.45 37.155 128.06 36.965 127.81 36.625C127.4 36.055 127.53 35.255 128.1 34.835C128.37 34.645 134.78 30.065 144.51 25.675C145.16 25.385 145.91 25.6751 146.2 26.3151C146.49 26.9651 146.2 27.7151 145.56 28.0051C136.08 32.2851 129.66 36.8651 129.6 36.9151C129.37 37.0751 129.11 37.155 128.85 37.155Z" fill="#52BB86"/>
<path d="M134.37 45.6451C133.92 45.6451 133.48 45.4051 133.25 44.9851C132.91 44.3651 133.13 43.5851 133.75 43.2451C133.82 43.2051 140.71 39.3751 148.65 32.6551C149.19 32.1951 150 32.2651 150.45 32.8051C150.91 33.3451 150.84 34.1551 150.3 34.6051C142.16 41.5051 135.27 45.3251 134.98 45.4851C134.78 45.5951 134.57 45.6451 134.36 45.6451H134.37Z" fill="#52BB86"/>
<path d="M134.23 45.995C133.63 45.995 133.09 45.565 132.97 44.955C132.84 44.265 133.29 43.585 133.98 43.455C134.3 43.395 142.08 41.905 152.71 41.995C153.42 41.995 153.99 42.575 153.98 43.285C153.98 43.995 153.44 44.575 152.69 44.555C142.33 44.475 134.54 45.955 134.47 45.965C134.39 45.985 134.3 45.985 134.22 45.985L134.23 45.995Z" fill="#52BB86"/>
<path d="M120.91 60.225C120.27 60.225 119.72 59.755 119.64 59.105C119.55 58.405 120.05 57.765 120.75 57.675C120.83 57.675 128.65 56.655 138.51 53.335C139.18 53.105 139.91 53.475 140.13 54.145C140.36 54.815 140 55.545 139.32 55.765C129.21 59.165 121.39 60.175 121.07 60.215C121.02 60.215 120.96 60.225 120.91 60.225Z" fill="#52BB86"/>
<path d="M138.36 65.975C138.2 65.975 138.04 65.945 137.88 65.885C128.24 61.975 120.5 60.485 120.42 60.465C119.72 60.335 119.27 59.665 119.4 58.965C119.53 58.275 120.19 57.815 120.9 57.945C121.22 58.005 128.96 59.485 138.85 63.505C139.51 63.775 139.82 64.515 139.56 65.175C139.36 65.675 138.88 65.975 138.37 65.975H138.36Z" fill="#52BB86"/>
<path d="M139.13 55.585C138.6 55.585 138.1 55.255 137.92 54.715C137.69 54.045 138.05 53.315 138.72 53.085C138.79 53.055 146.25 50.475 155.22 45.225C155.83 44.865 156.61 45.075 156.97 45.685C157.33 46.295 157.12 47.075 156.51 47.435C147.3 52.825 139.86 55.405 139.55 55.515C139.41 55.565 139.27 55.585 139.13 55.585Z" fill="#52BB86"/>
<path d="M157.39 57.675C157.31 57.675 157.24 57.675 157.16 57.655C146.91 55.785 139.05 55.905 138.96 55.905C138.29 55.925 137.67 55.355 137.66 54.645C137.65 53.935 138.21 53.355 138.92 53.345C139.25 53.345 147.13 53.215 157.62 55.135C158.32 55.265 158.78 55.925 158.65 56.625C158.54 57.245 158 57.675 157.39 57.675Z" fill="#52BB86"/>
<path d="M146.2 66.325C141.61 66.325 138.71 66.035 138.51 66.015C137.81 65.945 137.3 65.315 137.37 64.615C137.44 63.915 138.06 63.395 138.77 63.475C138.85 63.475 146.7 64.255 157.05 63.235C157.74 63.165 158.38 63.685 158.45 64.385C158.52 65.085 158 65.715 157.3 65.785C153.06 66.205 149.25 66.325 146.2 66.325Z" fill="#52BB86"/>
<path d="M154.35 75.555C154.1 75.555 153.84 75.475 153.61 75.325C145.1 69.345 137.89 66.155 137.82 66.125C137.17 65.845 136.88 65.085 137.16 64.435C137.44 63.785 138.2 63.495 138.85 63.775C139.15 63.905 146.36 67.095 155.09 73.225C155.67 73.635 155.81 74.435 155.4 75.005C155.15 75.355 154.75 75.545 154.35 75.545V75.555Z" fill="#52BB86"/>
<path d="M123.15 79.775C122.44 79.775 121.87 79.205 121.87 78.495C121.87 77.785 122.44 77.215 123.15 77.215C123.23 77.215 131.12 77.195 141.31 75.145C142.02 75.005 142.68 75.455 142.82 76.145C142.96 76.835 142.51 77.515 141.82 77.655C131.41 79.755 123.55 79.775 123.16 79.775H123.15Z" fill="#52BB86"/>
<path d="M139.73 87.685C139.52 87.685 139.3 87.635 139.1 87.525C130.03 82.435 122.53 79.985 122.46 79.955C121.79 79.735 121.42 79.015 121.64 78.345C121.86 77.675 122.57 77.305 123.25 77.525C123.56 77.625 131.05 80.065 140.36 85.295C140.98 85.645 141.2 86.425 140.85 87.035C140.62 87.455 140.18 87.685 139.73 87.685Z" fill="#52BB86"/>
<path d="M141.81 77.475C141.22 77.475 140.68 77.055 140.56 76.455C140.42 75.765 140.86 75.085 141.55 74.945C141.63 74.925 149.34 73.305 158.91 69.215C159.57 68.935 160.31 69.245 160.59 69.885C160.87 70.535 160.57 71.285 159.92 71.565C150.11 75.755 142.4 77.375 142.08 77.445C141.99 77.465 141.91 77.475 141.82 77.475H141.81Z" fill="#52BB86"/>
<path d="M159.66 81.835C159.53 81.835 159.4 81.815 159.27 81.775C149.36 78.635 141.52 77.755 141.44 77.755C140.74 77.675 140.23 77.045 140.31 76.345C140.39 75.645 141.01 75.135 141.72 75.205C142.05 75.245 149.88 76.105 160.05 79.335C160.72 79.545 161.1 80.265 160.88 80.945C160.71 81.495 160.2 81.835 159.66 81.835Z" fill="#52BB86"/>
<path d="M158.43 89.855C158.43 89.855 158.41 89.855 158.39 89.855C147.72 89.555 140.04 87.805 139.72 87.735C139.03 87.575 138.6 86.8851 138.76 86.1951C138.92 85.5051 139.61 85.075 140.3 85.235C140.38 85.255 148.07 87.0051 158.46 87.2951C159.17 87.3151 159.72 87.905 159.7 88.615C159.68 89.305 159.11 89.855 158.42 89.855H158.43Z" fill="#52BB86"/>
<path d="M154.4 99.1851C154.09 99.1851 153.78 99.0751 153.54 98.8551C145.85 91.8551 139.1 87.7851 139.03 87.7451C138.42 87.3851 138.23 86.595 138.59 85.985C138.95 85.375 139.74 85.1751 140.35 85.5451C140.63 85.7151 147.38 89.7751 155.27 96.9651C155.79 97.4451 155.83 98.2551 155.35 98.7751C155.1 99.055 154.75 99.1951 154.4 99.1951V99.1851Z" fill="#52BB86"/>
<path d="M136.13 97.545C135.99 97.545 135.84 97.525 135.7 97.465C125.66 93.845 118.92 89.775 118.63 89.605C118.03 89.235 117.83 88.455 118.2 87.845C118.57 87.245 119.35 87.045 119.96 87.415C120.03 87.455 126.78 91.525 136.57 95.055C137.24 95.295 137.58 96.025 137.34 96.695C137.15 97.215 136.66 97.545 136.14 97.545H136.13Z" fill="#52BB86"/>
<path d="M129.38 105.145C128.93 105.145 128.5 104.915 128.26 104.495C123.14 95.425 118.01 89.455 117.96 89.395C117.5 88.865 117.55 88.055 118.09 87.585C118.63 87.125 119.43 87.185 119.9 87.715C120.12 87.965 125.25 93.935 130.5 103.235C130.85 103.855 130.63 104.635 130.01 104.975C129.81 105.085 129.59 105.145 129.38 105.145Z" fill="#52BB86"/>
<path d="M154.51 101.655C154.45 101.655 154.39 101.655 154.33 101.645C143.77 100.145 136.33 97.535 136.02 97.425C135.35 97.185 135 96.455 135.24 95.795C135.48 95.125 136.21 94.785 136.87 95.015C136.94 95.045 144.39 97.655 154.68 99.115C155.38 99.215 155.87 99.865 155.77 100.565C155.68 101.205 155.13 101.665 154.5 101.665L154.51 101.655Z" fill="#52BB86"/>
<path d="M149.45 110.475C149.09 110.475 148.74 110.325 148.49 110.035C141.64 102.205 135.39 97.395 135.33 97.345C134.77 96.915 134.66 96.115 135.09 95.555C135.52 94.995 136.32 94.885 136.88 95.315C137.14 95.515 143.39 100.315 150.41 108.345C150.88 108.875 150.82 109.685 150.29 110.155C150.05 110.365 149.75 110.475 149.45 110.475Z" fill="#52BB86"/>
<path d="M144.24 116.695C144 116.695 143.76 116.625 143.55 116.485C134.58 110.695 128.92 105.215 128.69 104.985C128.18 104.495 128.17 103.685 128.67 103.175C129.17 102.665 129.97 102.655 130.48 103.155C130.54 103.205 136.21 108.695 144.94 114.335C145.53 114.715 145.7 115.515 145.32 116.105C145.07 116.485 144.66 116.695 144.24 116.695Z" fill="#52BB86"/>
<path d="M135.95 122.585C135.4 122.585 134.89 122.225 134.72 121.665C131.77 111.695 128.11 104.705 128.07 104.635C127.74 104.015 127.98 103.235 128.6 102.905C129.22 102.575 130 102.815 130.33 103.435C130.48 103.725 134.15 110.695 137.17 120.935C137.37 121.615 136.98 122.325 136.31 122.525C136.19 122.565 136.07 122.575 135.95 122.575V122.585Z" fill="#52BB86"/>
<path d="M134.83 126.245C134.69 126.245 134.55 126.225 134.41 126.175C124.34 122.645 117.56 118.645 117.27 118.475C116.66 118.115 116.46 117.325 116.82 116.725C117.18 116.115 117.97 115.915 118.57 116.275C118.64 116.315 125.43 120.325 135.25 123.755C135.92 123.985 136.27 124.715 136.04 125.385C135.86 125.915 135.36 126.245 134.83 126.245Z" fill="#52BB86"/>
<path d="M128.15 133.905C127.71 133.905 127.28 133.675 127.04 133.265C121.84 124.255 116.65 118.325 116.59 118.265C116.12 117.735 116.17 116.925 116.7 116.455C117.23 115.985 118.04 116.035 118.51 116.565C118.73 116.815 123.92 122.735 129.25 131.975C129.6 132.585 129.39 133.375 128.78 133.725C128.58 133.845 128.36 133.895 128.14 133.895L128.15 133.905Z" fill="#52BB86"/>
<path d="M153.25 130.185C153.19 130.185 153.14 130.185 153.08 130.175C142.5 128.775 135.04 126.235 134.73 126.125C134.06 125.895 133.71 125.165 133.94 124.495C134.17 123.825 134.9 123.475 135.57 123.705C135.64 123.735 143.11 126.275 153.42 127.635C154.12 127.725 154.61 128.375 154.52 129.075C154.43 129.715 153.88 130.185 153.25 130.185Z" fill="#52BB86"/>
<path d="M148.27 139.045C147.92 139.045 147.57 138.905 147.31 138.615C140.38 130.835 134.09 126.105 134.03 126.055C133.46 125.635 133.35 124.825 133.77 124.265C134.19 123.695 135 123.585 135.56 124.005C135.82 124.205 142.11 128.945 149.22 136.915C149.69 137.445 149.64 138.255 149.12 138.725C148.88 138.945 148.57 139.045 148.27 139.045Z" fill="#52BB86"/>
<path d="M143.12 145.315C142.89 145.315 142.65 145.255 142.44 145.115C133.42 139.415 127.71 133.985 127.47 133.765C126.96 133.275 126.94 132.465 127.43 131.955C127.92 131.445 128.73 131.425 129.24 131.915C129.3 131.965 135.02 137.405 143.81 142.955C144.41 143.335 144.59 144.125 144.21 144.725C143.97 145.115 143.55 145.325 143.13 145.325L143.12 145.315Z" fill="#52BB86"/>
<path d="M134.89 151.285C134.34 151.285 133.83 150.935 133.67 150.375C130.63 140.425 126.9 133.475 126.86 133.415C126.52 132.795 126.75 132.015 127.38 131.675C128 131.335 128.78 131.565 129.12 132.195C129.28 132.485 133 139.425 136.12 149.625C136.33 150.305 135.95 151.015 135.27 151.225C135.15 151.265 135.02 151.285 134.9 151.285H134.89Z" fill="#52BB86"/>
<path d="M123.77 137.235C123.51 137.235 123.25 137.155 123.02 136.995C114.35 130.775 108.96 125.035 108.74 124.785C108.26 124.265 108.29 123.455 108.8 122.975C109.32 122.495 110.13 122.525 110.61 123.035C110.66 123.095 116.06 128.845 124.51 134.905C125.08 135.315 125.22 136.115 124.8 136.695C124.55 137.045 124.16 137.225 123.76 137.225L123.77 137.235Z" fill="#52BB86"/>
<path d="M115.2 142.715C114.62 142.715 114.1 142.325 113.96 141.735C111.5 131.635 108.18 124.475 108.15 124.405C107.85 123.765 108.13 123.005 108.77 122.705C109.41 122.405 110.17 122.685 110.47 123.325C110.61 123.625 113.93 130.765 116.45 141.135C116.62 141.825 116.2 142.515 115.51 142.685C115.41 142.705 115.31 142.725 115.21 142.725L115.2 142.715Z" fill="#52BB86"/>
<path d="M140.34 146.195C140.17 146.195 139.99 146.155 139.82 146.085C130.06 141.765 123.62 137.235 123.35 137.045C122.77 136.635 122.64 135.835 123.05 135.265C123.46 134.695 124.26 134.555 124.84 134.955C124.9 135.005 131.36 139.535 140.87 143.745C141.52 144.035 141.81 144.785 141.52 145.435C141.31 145.915 140.84 146.195 140.35 146.195H140.34Z" fill="#52BB86"/>
<path d="M133.07 153.305C132.59 153.305 132.13 153.035 131.91 152.575C127.45 143.185 122.74 136.855 122.69 136.785C122.27 136.215 122.38 135.415 122.95 134.995C123.52 134.575 124.32 134.685 124.74 135.255C124.94 135.515 129.64 141.835 134.22 151.475C134.52 152.115 134.25 152.875 133.61 153.185C133.43 153.265 133.24 153.305 133.06 153.305H133.07Z" fill="#52BB86"/>
<path d="M126.36 157.875C126 157.875 125.65 157.725 125.4 157.445C118.34 149.435 114.39 142.625 114.22 142.345C113.87 141.735 114.08 140.945 114.69 140.595C115.3 140.245 116.09 140.455 116.44 141.065C116.48 141.135 120.44 147.955 127.32 155.755C127.79 156.285 127.74 157.095 127.21 157.565C126.97 157.775 126.66 157.885 126.36 157.885V157.875Z" fill="#52BB86"/>
<path d="M116.79 161.285C116.09 161.285 115.52 160.725 115.51 160.015C115.39 149.615 113.76 141.895 113.74 141.825C113.59 141.135 114.03 140.455 114.72 140.305C115.41 140.155 116.09 140.595 116.24 141.285C116.31 141.605 117.94 149.315 118.06 159.985C118.06 160.695 117.5 161.275 116.79 161.285Z" fill="#52BB86"/>
<path d="M110.31 145.365C109.93 145.365 109.55 145.195 109.3 144.865C102.76 136.425 99.2403 129.385 99.1003 129.085C98.7903 128.455 99.0503 127.685 99.6803 127.365C100.31 127.055 101.08 127.305 101.4 127.945C101.44 128.015 104.96 135.075 111.33 143.295C111.76 143.855 111.66 144.655 111.1 145.095C110.87 145.275 110.59 145.365 110.32 145.365H110.31Z" fill="#52BB86"/>
<path d="M100.53 148.165C100.53 148.165 100.49 148.165 100.46 148.165C99.7503 148.125 99.2103 147.525 99.2503 146.825C99.7803 136.435 98.6503 128.635 98.6303 128.555C98.5303 127.855 99.0103 127.205 99.7103 127.095C100.39 126.985 101.06 127.475 101.17 128.175C101.22 128.505 102.36 136.295 101.81 146.955C101.77 147.635 101.21 148.165 100.53 148.165Z" fill="#52BB86"/>
<path d="M123.62 158.675C123.33 158.675 123.03 158.575 122.79 158.365C114.67 151.435 109.79 145.255 109.59 144.995C109.15 144.435 109.25 143.635 109.81 143.195C110.37 142.755 111.17 142.855 111.61 143.415C111.66 143.475 116.55 149.665 124.46 156.415C125 156.875 125.06 157.685 124.6 158.225C124.35 158.525 123.99 158.675 123.63 158.675H123.62Z" fill="#52BB86"/>
<path d="M114.62 163.415C114 163.415 113.45 162.965 113.36 162.335C111.77 152.055 109.07 144.645 109.04 144.575C108.8 143.915 109.14 143.175 109.8 142.935C110.47 142.695 111.2 143.035 111.44 143.695C111.55 144.005 114.25 151.405 115.89 161.955C116 162.655 115.52 163.305 114.82 163.415C114.75 163.425 114.69 163.435 114.62 163.435V163.415Z" fill="#52BB86"/>
<path d="M106.9 165.875C106.42 165.875 105.95 165.595 105.74 165.135C101.27 155.445 99.4203 147.785 99.3503 147.465C99.1903 146.775 99.6103 146.085 100.3 145.925C100.99 145.765 101.68 146.185 101.84 146.875C101.86 146.955 103.71 154.615 108.07 164.065C108.37 164.705 108.09 165.465 107.45 165.765C107.28 165.845 107.09 165.885 106.91 165.885L106.9 165.875Z" fill="#52BB86"/>
<path d="M96.7403 166.415C96.6203 166.415 96.5003 166.395 96.3903 166.365C95.7103 166.175 95.3203 165.465 95.5103 164.785C98.3603 154.785 99.0103 146.925 99.0203 146.845C99.0803 146.145 99.6903 145.615 100.4 145.665C101.11 145.725 101.63 146.335 101.58 147.045C101.55 147.375 100.91 155.225 97.9803 165.485C97.8203 166.045 97.3103 166.415 96.7503 166.415H96.7403Z" fill="#52BB86"/>
<path d="M85.9603 149.445C85.9103 149.445 85.8503 149.445 85.7903 149.435C85.0903 149.345 84.5903 148.705 84.6803 148.005C86.0403 137.415 88.5403 129.955 88.6503 129.635C88.8803 128.965 89.6003 128.605 90.2703 128.835C90.9403 129.065 91.3003 129.785 91.0703 130.455C91.0403 130.525 88.5403 138.005 87.2203 148.325C87.1403 148.975 86.5903 149.445 85.9503 149.445H85.9603Z" fill="#52BB86"/>
<path d="M77.0703 144.505C76.7203 144.505 76.3703 144.365 76.1203 144.085C75.6503 143.555 75.6903 142.745 76.2203 142.275C83.9503 135.315 88.6803 129.005 88.7203 128.935C89.1403 128.365 89.9403 128.245 90.5103 128.675C91.0803 129.095 91.2003 129.895 90.7703 130.465C90.5703 130.735 85.8603 137.035 77.9303 144.175C77.6903 144.395 77.3803 144.505 77.0703 144.505Z" fill="#52BB86"/>
<path d="M85.9403 168.275C85.2803 168.275 84.7203 167.765 84.6603 167.095C83.8303 156.455 84.7703 148.635 84.8103 148.305C84.9003 147.605 85.5403 147.105 86.2403 147.185C86.9403 147.275 87.4403 147.905 87.3603 148.615C87.3603 148.695 86.4203 156.525 87.2203 166.895C87.2703 167.605 86.7503 168.215 86.0403 168.275C86.0103 168.275 85.9703 168.275 85.9403 168.275Z" fill="#52BB86"/>
<path d="M76.2303 165.245C75.9703 165.245 75.7003 165.165 75.4703 164.995C74.9003 164.575 74.7803 163.775 75.2003 163.205C81.3503 154.825 84.6903 147.675 84.7303 147.605C85.0303 146.965 85.7903 146.685 86.4303 146.985C87.0703 147.285 87.3503 148.045 87.0503 148.685C86.9103 148.985 83.5803 156.125 77.2603 164.725C77.0103 165.065 76.6203 165.245 76.2303 165.245Z" fill="#52BB86"/>
<path d="M69.0303 161.515C68.8803 161.515 68.7303 161.485 68.5903 161.435C67.9303 161.185 67.5903 160.455 67.8303 159.785C71.5303 149.775 75.6503 143.065 75.8303 142.785C76.2003 142.185 76.9903 141.995 77.5903 142.365C78.1903 142.735 78.3803 143.525 78.0103 144.125C77.9703 144.195 73.8403 150.915 70.2403 160.675C70.0503 161.195 69.5603 161.515 69.0403 161.515H69.0303Z" fill="#52BB86"/>
<path d="M61.4803 154.705C61.0303 154.705 60.5903 154.465 60.3603 154.045C60.0203 153.425 60.2403 152.645 60.8603 152.305C69.9703 147.255 75.9803 142.175 76.0403 142.125C76.5803 141.665 77.3903 141.735 77.8403 142.265C78.3003 142.805 78.2303 143.615 77.7003 144.065C77.4503 144.275 71.4403 149.365 62.1003 154.545C61.9003 154.655 61.6903 154.705 61.4803 154.705Z" fill="#52BB86"/>
<path d="M117.21 118.325C117 118.325 116.78 118.275 116.58 118.155C107.29 112.905 101.32 107.775 101.07 107.555C100.53 107.095 100.48 106.285 100.94 105.745C101.4 105.205 102.21 105.155 102.75 105.615C102.81 105.665 108.79 110.805 117.85 115.915C118.47 116.265 118.68 117.045 118.34 117.655C118.1 118.075 117.67 118.305 117.22 118.305L117.21 118.325Z" fill="#52BB86"/>
<path d="M109.29 124.695C108.77 124.695 108.27 124.375 108.09 123.845C104.55 114.045 100.49 107.305 100.45 107.235C100.08 106.635 100.28 105.845 100.88 105.475C101.48 105.105 102.27 105.305 102.64 105.905C102.81 106.185 106.88 112.935 110.5 122.975C110.74 123.645 110.4 124.375 109.73 124.615C109.59 124.665 109.44 124.695 109.3 124.695H109.29Z" fill="#52BB86"/>
<path d="M99.8903 129.355C99.4403 129.355 99.0003 129.115 98.7703 128.685C93.6603 119.315 91.3103 111.795 91.2103 111.485C91.0003 110.805 91.3803 110.095 92.0603 109.885C92.7303 109.675 93.4503 110.055 93.6603 110.725C93.6803 110.805 96.0403 118.325 101.02 127.455C101.36 128.075 101.13 128.855 100.51 129.195C100.31 129.305 100.1 129.355 99.9003 129.355H99.8903Z" fill="#52BB86"/>
<path d="M89.8003 130.565C89.7103 130.565 89.6203 130.565 89.5303 130.535C88.8403 130.385 88.4003 129.705 88.5503 129.015C90.7303 118.845 90.8503 110.955 90.8603 110.885C90.8603 110.185 91.4403 109.625 92.1403 109.625H92.1603C92.8703 109.625 93.4303 110.215 93.4203 110.925C93.4203 111.255 93.3003 119.135 91.0603 129.565C90.9303 130.165 90.4003 130.575 89.8103 130.575L89.8003 130.565Z" fill="#52BB86"/>
<path d="M101.37 107.485C101.08 107.485 100.79 107.385 100.55 107.185C92.3803 100.315 87.4603 94.165 87.2603 93.905C86.8203 93.355 86.9104 92.545 87.4704 92.105C88.0204 91.665 88.8303 91.755 89.2703 92.305C89.3203 92.365 94.2503 98.525 102.21 105.225C102.75 105.685 102.82 106.485 102.37 107.025C102.12 107.325 101.75 107.485 101.39 107.485H101.37Z" fill="#52BB86"/>
<path d="M92.4003 112.285C91.7803 112.285 91.2403 111.835 91.1403 111.205C89.4803 100.935 86.7203 93.545 86.7003 93.475C86.4503 92.815 86.7903 92.075 87.4503 91.825C88.1103 91.575 88.8503 91.915 89.1003 92.575C89.2203 92.885 91.9703 100.265 93.6703 110.795C93.7803 111.495 93.3103 112.155 92.6103 112.265C92.5403 112.275 92.4703 112.285 92.4003 112.285Z" fill="#52BB86"/>
<path d="M147.6 107.385C147.26 107.385 146.91 107.245 146.66 106.975C146.53 106.845 133.14 93.475 113.25 92.925C98.4603 92.515 85.2803 86.955 74.0703 76.405C73.5603 75.925 73.5303 75.105 74.0203 74.595C74.5003 74.075 75.3203 74.055 75.8303 74.545C86.7103 84.795 98.9703 89.965 113.32 90.365C134.41 90.945 148.41 105.095 148.54 105.235C149.02 105.755 148.99 106.565 148.47 107.045C148.22 107.275 147.91 107.385 147.6 107.385Z" fill="#52BB86"/>
<path d="M74.4004 97.905C73.9404 97.905 73.4904 97.655 73.2604 97.215C72.9304 96.585 73.1804 95.815 73.8004 95.485C82.0704 91.175 100.76 89.105 101.56 89.025C102.25 88.955 102.89 89.455 102.97 90.155C103.05 90.855 102.54 91.485 101.84 91.565C101.65 91.585 82.8304 93.665 74.9904 97.755C74.8004 97.855 74.6004 97.905 74.4004 97.905Z" fill="#52BB86"/>
<path d="M57.1604 105.445C56.7004 105.445 56.2604 105.205 56.0304 104.775C55.7004 104.155 55.9304 103.375 56.5504 103.045C65.9504 97.9851 73.4804 95.6751 73.7904 95.5851C74.4704 95.3851 75.1804 95.7651 75.3904 96.4351C75.6004 97.1151 75.2104 97.8251 74.5404 98.0351C74.4604 98.0551 66.9204 100.375 57.7704 105.305C57.5804 105.405 57.3704 105.455 57.1604 105.455V105.445Z" fill="#52BB86"/>
<path d="M74.0804 97.6251C73.9404 97.6251 73.8004 97.6051 73.6604 97.5551C73.3504 97.4451 65.9204 94.8251 56.7404 89.3751C56.1304 89.0151 55.9304 88.2251 56.2904 87.6251C56.6504 87.0151 57.4404 86.8151 58.0404 87.1751C66.9804 92.4851 74.4204 95.1151 74.5004 95.1351C75.1704 95.3651 75.5204 96.0951 75.2904 96.7651C75.1104 97.2951 74.6104 97.6251 74.0804 97.6251Z" fill="#52BB86"/>
<path d="M41.8404 116.395C41.4704 116.395 41.1104 116.235 40.8604 115.935C40.4004 115.395 40.4804 114.585 41.0204 114.135C49.1904 107.275 56.0904 103.475 56.3804 103.325C57.0004 102.985 57.7804 103.215 58.1204 103.835C58.4604 104.455 58.2304 105.235 57.6104 105.575C57.5404 105.615 50.6304 109.415 42.6704 116.105C42.4304 116.305 42.1404 116.405 41.8504 116.405L41.8404 116.395Z" fill="#52BB86"/>
<path d="M39.9704 106.745C39.5304 106.745 39.0904 106.745 38.6304 106.745C37.9204 106.745 37.3604 106.155 37.3704 105.445C37.3704 104.745 37.9504 104.175 38.6504 104.175H38.6704C49.0604 104.295 56.8204 102.855 56.9004 102.845C57.5904 102.715 58.2604 103.165 58.4004 103.865C58.5404 104.565 58.0804 105.225 57.3804 105.365C57.0704 105.425 49.9504 106.755 39.9804 106.755L39.9704 106.745Z" fill="#52BB86"/>
<path d="M57.1204 89.4751C57.0104 89.4751 56.9104 89.4651 56.8004 89.4351C56.7204 89.4151 49.0804 87.4851 38.6904 86.9451C37.9804 86.9051 37.4404 86.305 37.4804 85.595C37.5204 84.885 38.1304 84.355 38.8204 84.385C49.4804 84.935 57.1104 86.875 57.4304 86.955C58.1104 87.135 58.5304 87.8251 58.3504 88.5151C58.2004 89.0951 57.6804 89.4751 57.1104 89.4751H57.1204Z" fill="#52BB86"/>
<path d="M57.4504 89.315C57.2204 89.315 56.9804 89.255 56.7704 89.115C56.4904 88.935 49.8404 84.715 42.1204 77.345C41.6104 76.855 41.5904 76.045 42.0804 75.535C42.5704 75.025 43.3804 75.005 43.8904 75.495C51.4104 82.675 58.0704 86.905 58.1404 86.955C58.7404 87.335 58.9204 88.125 58.5404 88.725C58.3004 89.1151 57.8804 89.325 57.4604 89.325L57.4504 89.315Z" fill="#52BB86"/>
<path d="M27.9603 128.905C27.6503 128.905 27.3303 128.795 27.0803 128.555C26.5603 128.075 26.5403 127.265 27.0203 126.745C34.3103 118.955 40.7103 114.355 40.9803 114.165C41.5503 113.755 42.3603 113.885 42.7703 114.465C43.1803 115.045 43.0503 115.845 42.4703 116.255C42.4103 116.305 36.0003 120.905 28.9003 128.495C28.6503 128.765 28.3103 128.905 27.9603 128.905Z" fill="#52BB86"/>
<path d="M23.6303 119.705C22.9903 119.705 22.4303 119.215 22.3603 118.565C22.2803 117.865 22.7903 117.235 23.4903 117.155C33.8303 116.035 41.3603 113.665 41.4303 113.645C42.1103 113.425 42.8203 113.805 43.0403 114.475C43.2503 115.145 42.8803 115.865 42.2103 116.085C41.9003 116.185 34.3803 118.545 23.7703 119.705C23.7203 119.705 23.6803 119.705 23.6303 119.705Z" fill="#52BB86"/>
<path d="M16.9303 144.175C16.7003 144.175 16.4703 144.115 16.2603 143.985C15.6603 143.615 15.4703 142.825 15.8303 142.225C21.3803 133.115 26.7103 127.315 26.9303 127.065C27.4103 126.545 28.2203 126.515 28.7403 126.995C29.2603 127.475 29.2903 128.285 28.8103 128.805C28.7603 128.865 23.4203 134.675 18.0103 143.555C17.7703 143.955 17.3503 144.165 16.9203 144.165L16.9303 144.175Z" fill="#52BB86"/>
<path d="M10.8204 136.045C10.2804 136.045 9.78035 135.705 9.60035 135.155C9.38035 134.485 9.75035 133.765 10.4204 133.545C20.3104 130.345 27.2004 126.495 27.2704 126.455C27.8804 126.105 28.6704 126.325 29.0104 126.945C29.3604 127.565 29.1404 128.345 28.5204 128.685C28.2304 128.845 21.3604 132.685 11.2004 135.975C11.0704 136.015 10.9404 136.035 10.8104 136.035L10.8204 136.045Z" fill="#52BB86"/>
<path d="M7.16034 128.805C6.75034 128.805 6.34034 128.605 6.10034 128.235C5.71034 127.645 5.86034 126.855 6.45034 126.455C15.3003 120.495 22.5703 117.465 22.8803 117.335C23.5303 117.065 24.2803 117.375 24.5503 118.025C24.8203 118.675 24.5103 119.425 23.8603 119.695C23.7903 119.725 16.5103 122.765 7.88034 128.575C7.66034 128.725 7.41034 128.795 7.17034 128.795L7.16034 128.805Z" fill="#52BB86"/>
<path d="M18.1303 119.645C14.8003 119.645 10.1803 119.485 4.87035 118.855C4.17035 118.775 3.67035 118.135 3.75035 117.435C3.83035 116.735 4.47035 116.225 5.17035 116.315C15.5003 117.545 23.3603 116.935 23.4403 116.925C24.1703 116.865 24.7603 117.395 24.8203 118.095C24.8803 118.805 24.3503 119.415 23.6503 119.475C23.4903 119.485 21.4503 119.645 18.1303 119.645Z" fill="#52BB86"/>
<path d="M19.9604 109.185C19.3704 109.185 18.8404 108.775 18.7104 108.175C18.5604 107.485 19.0004 106.805 19.6904 106.655C30.1204 104.385 37.9904 104.245 38.3204 104.245C38.9804 104.255 39.6104 104.795 39.6204 105.505C39.6304 106.215 39.0704 106.795 38.3604 106.805C38.2804 106.805 30.3904 106.945 20.2304 109.155C20.1404 109.175 20.0504 109.185 19.9604 109.185Z" fill="#52BB86"/>
<path d="M38.6304 106.565C38.5103 106.565 38.3803 106.545 38.2503 106.505C37.9303 106.405 30.4103 104.075 21.0303 98.9951C20.4103 98.6551 20.1804 97.8851 20.5104 97.2551C20.8504 96.6351 21.6204 96.4051 22.2504 96.7351C31.3904 101.685 38.9303 104.025 39.0003 104.045C39.6803 104.255 40.0604 104.965 39.8504 105.645C39.6804 106.195 39.1704 106.555 38.6304 106.555V106.565Z" fill="#52BB86"/>
<path d="M2.21035 115.475C1.72035 115.475 1.25035 115.195 1.04035 114.715C0.750345 114.065 1.04035 113.315 1.69035 113.025C11.4403 108.685 19.1203 106.945 19.4403 106.875C20.1403 106.725 20.8203 107.155 20.9703 107.845C21.1203 108.535 20.6903 109.215 20.0003 109.375C19.9203 109.395 12.2303 111.135 2.73035 115.365C2.56035 115.445 2.38035 115.475 2.21035 115.475Z" fill="#52BB86"/>
<path d="M19.9504 109.115C19.9504 109.115 19.8704 109.115 19.8304 109.115C19.5004 109.085 11.6604 108.335 1.44036 105.265C0.760357 105.065 0.380357 104.345 0.580357 103.675C0.780357 103.005 1.50036 102.615 2.17036 102.815C12.1304 105.805 19.9804 106.555 20.0604 106.565C20.7604 106.635 21.2804 107.255 21.2204 107.955C21.1604 108.615 20.6004 109.115 19.9504 109.115Z" fill="#52BB86"/>
<path d="M21.3604 99.0851C21.2704 99.0851 21.1804 99.0851 21.0904 99.0551C21.0104 99.0351 13.3004 97.4051 2.90036 97.2751C2.19036 97.2751 1.63036 96.6851 1.64036 95.9751C1.64036 95.2751 2.22036 94.7151 2.92036 94.7151H2.94036C13.6104 94.8451 21.3204 96.4851 21.6404 96.5551C22.3304 96.7051 22.7704 97.3851 22.6204 98.0751C22.4904 98.6751 21.9604 99.0851 21.3704 99.0851H21.3604Z" fill="#52BB86"/>
<path d="M21.6904 98.915C21.4704 98.915 21.2504 98.8551 21.0504 98.7451C20.7604 98.5751 13.9604 94.615 5.96035 87.555C5.43035 87.085 5.38035 86.2751 5.85035 85.7451C6.32035 85.2151 7.13035 85.165 7.66035 85.635C15.4604 92.515 22.2704 96.485 22.3404 96.525C22.9504 96.875 23.1604 97.665 22.8104 98.275C22.5704 98.685 22.1404 98.915 21.7004 98.915H21.6904Z" fill="#52BB86"/>
<path d="M19.7403 87.1751C19.0803 87.1751 18.5303 86.6751 18.4703 86.0051C18.4103 85.3051 18.9303 84.6751 19.6303 84.6151C30.2603 83.6751 38.0903 84.5251 38.4203 84.5651C39.1203 84.6451 39.6304 85.2751 39.5504 85.9751C39.4704 86.6751 38.8304 87.1851 38.1404 87.1051C38.0604 87.1051 30.2103 86.245 19.8603 87.165C19.8203 87.165 19.7803 87.165 19.7503 87.165L19.7403 87.1751Z" fill="#52BB86"/>
<path d="M38.5903 86.9251C38.4103 86.9251 38.2403 86.8851 38.0703 86.8151C37.7703 86.6751 30.6003 83.4251 21.9303 77.2051C21.3503 76.7951 21.2203 75.9951 21.6403 75.4151C22.0503 74.8351 22.8503 74.7051 23.4303 75.1251C31.8803 81.1851 39.0603 84.4551 39.1303 84.4851C39.7703 84.7751 40.0603 85.5351 39.7703 86.1751C39.5603 86.6451 39.0903 86.9251 38.6003 86.9251H38.5903Z" fill="#52BB86"/>
<path d="M1.34036 91.1851C0.790355 91.1851 0.280355 90.8251 0.110355 90.2751C-0.0896446 89.5951 0.290355 88.8851 0.970355 88.6751C11.1904 85.5951 19.0304 84.8351 19.3604 84.8051C20.0704 84.7451 20.6904 85.2551 20.7504 85.9551C20.8204 86.6551 20.3004 87.2851 19.6004 87.3551C19.5204 87.3551 11.6704 88.1251 1.71036 91.1351C1.59036 91.1751 1.46036 91.1851 1.34036 91.1851Z" fill="#52BB86"/>
<path d="M19.7404 87.095C19.6504 87.095 19.5604 87.095 19.4604 87.065C19.1404 86.995 11.4504 85.2651 1.70035 80.9351C1.05035 80.6451 0.760355 79.895 1.05035 79.245C1.34035 78.595 2.09035 78.305 2.74035 78.595C12.2504 82.815 19.9404 84.545 20.0204 84.565C20.7104 84.715 21.1504 85.405 20.9904 86.095C20.8604 86.695 20.3304 87.095 19.7404 87.095Z" fill="#52BB86"/>
<path d="M22.4004 77.325C22.2604 77.325 22.1204 77.305 21.9804 77.255C21.9104 77.225 14.4504 74.635 4.16036 73.205C3.46036 73.105 2.97036 72.4651 3.07036 71.7651C3.17036 71.0651 3.83036 70.575 4.52036 70.675C15.0904 72.145 22.5304 74.735 22.8404 74.845C23.5104 75.075 23.8604 75.8151 23.6204 76.4751C23.4304 77.0051 22.9404 77.3351 22.4104 77.3351L22.4004 77.325Z" fill="#52BB86"/>
<path d="M22.7504 77.205C22.4804 77.205 22.2104 77.1251 21.9804 76.9451C21.7204 76.7451 15.4604 71.965 8.41036 63.945C7.94036 63.415 7.99036 62.605 8.53036 62.135C9.07036 61.665 9.87036 61.7251 10.3404 62.2551C17.2104 70.0651 23.4704 74.8551 23.5404 74.9051C24.1004 75.3351 24.2104 76.1351 23.7804 76.6951C23.5304 77.0251 23.1504 77.205 22.7604 77.205H22.7504Z" fill="#52BB86"/>
<path d="M43.2103 77.5951C42.9403 77.5951 42.6603 77.5051 42.4303 77.3251C42.3703 77.2751 36.1003 72.4851 26.7703 67.8951C26.1403 67.5851 25.8703 66.8151 26.1903 66.1851C26.5003 65.5551 27.2703 65.2851 27.9003 65.6051C37.4803 70.3151 43.7303 75.1051 43.9903 75.3051C44.5503 75.7351 44.6503 76.5451 44.2203 77.1051C43.9703 77.4351 43.5903 77.6051 43.2003 77.6051L43.2103 77.5951Z" fill="#52BB86"/>
<path d="M43.5803 77.5851C43.1703 77.5851 42.7703 77.395 42.5203 77.035C42.3303 76.765 37.8903 70.265 33.7003 60.445C33.4203 59.795 33.7203 59.045 34.3703 58.765C35.0203 58.485 35.7703 58.785 36.0503 59.445C40.1303 69.005 44.5803 75.5251 44.6203 75.5851C45.0203 76.1651 44.8703 76.965 44.2903 77.365C44.0703 77.515 43.8203 77.595 43.5703 77.595L43.5803 77.5851Z" fill="#52BB86"/>
<path d="M27.0103 68.0451C26.8203 68.0451 26.6303 68.0051 26.4503 67.9151C26.3803 67.8851 19.2703 64.4651 9.20034 61.8751C8.52034 61.6951 8.10034 61.0051 8.28034 60.3151C8.46034 59.6351 9.15034 59.2151 9.84034 59.3951C20.1703 62.0551 27.2703 65.4751 27.5703 65.6151C28.2103 65.9251 28.4703 66.6851 28.1603 67.3251C27.9403 67.7851 27.4803 68.0451 27.0103 68.0451Z" fill="#52BB86"/>
<path d="M27.3803 67.9651C27.0603 67.9651 26.7403 67.8451 26.5003 67.6151C26.2603 67.3851 20.5903 61.9251 14.4903 53.1651C14.0903 52.5851 14.2303 51.7851 14.8103 51.3851C15.3903 50.9851 16.1903 51.1251 16.5903 51.7051C22.5303 60.2351 28.2103 65.7151 28.2703 65.7651C28.7803 66.2551 28.8003 67.0651 28.3103 67.5751C28.0603 67.8351 27.7203 67.9751 27.3903 67.9751L27.3803 67.9651Z" fill="#52BB86"/>
<path d="M34.7103 60.9851C34.3403 60.9851 33.9703 60.8251 33.7203 60.5151C33.6703 60.4551 28.6403 54.3751 20.5803 47.8051C20.0303 47.3551 19.9503 46.5551 20.4003 46.0051C20.8503 45.4551 21.6503 45.3751 22.2003 45.8251C30.4703 52.5651 35.4903 58.6351 35.7003 58.8951C36.1503 59.4451 36.0703 60.2451 35.5203 60.6951C35.2803 60.8951 34.9903 60.9851 34.7103 60.9851Z" fill="#52BB86"/>
<path d="M35.0803 61.0651C34.5703 61.0651 34.0903 60.7551 33.8903 60.2551C33.7703 59.9451 30.9003 52.6151 29.0203 42.1051C28.9003 41.4051 29.3603 40.7451 30.0603 40.6151C30.7403 40.4951 31.4203 40.9551 31.5503 41.6551C33.3803 51.8951 36.2503 59.2351 36.2803 59.3151C36.5403 59.9751 36.2203 60.7151 35.5603 60.9751C35.4103 61.0351 35.2503 61.0651 35.0903 61.0651H35.0803Z" fill="#52BB86"/>
<path d="M47.7604 49.0651C47.4904 49.0651 47.2204 48.9851 46.9904 48.8051C46.9304 48.7551 40.6204 44.0251 31.2404 39.5251C30.6004 39.2151 30.3304 38.4551 30.6404 37.8151C30.9404 37.1751 31.7104 36.9051 32.3504 37.2151C41.9704 41.8351 48.2704 46.5651 48.5304 46.7651C49.0904 47.1951 49.2104 47.9951 48.7804 48.5551C48.5304 48.8851 48.1504 49.0651 47.7604 49.0651Z" fill="#52BB86"/>
<path d="M48.1403 49.0551C47.7403 49.0551 47.3403 48.8651 47.0903 48.5151C46.9003 48.2451 42.3903 41.7851 38.1103 32.0051C37.8303 31.3551 38.1203 30.6051 38.7703 30.3151C39.4203 30.0351 40.1703 30.3251 40.4603 30.9751C44.6303 40.5051 49.1403 46.9751 49.1903 47.0351C49.6003 47.6151 49.4603 48.4151 48.8803 48.8151C48.6603 48.9751 48.4003 49.0451 48.1503 49.0451L48.1403 49.0551Z" fill="#52BB86"/>
<path d="M31.4804 39.675C31.3004 39.675 31.1104 39.635 30.9304 39.555C30.8604 39.525 23.7204 36.175 13.6204 33.675C12.9304 33.505 12.5104 32.815 12.6804 32.125C12.8504 31.435 13.5404 31.015 14.2304 31.185C24.5904 33.745 31.7204 37.095 32.0204 37.235C32.6604 37.535 32.9304 38.305 32.6304 38.935C32.4104 39.395 31.9504 39.665 31.4704 39.665L31.4804 39.675Z" fill="#52BB86"/>
<path d="M31.8404 39.585C31.5304 39.585 31.2104 39.475 30.9604 39.2351C30.7204 39.0051 24.9904 33.6051 18.8104 24.9051C18.4004 24.3251 18.5404 23.525 19.1104 23.115C19.6804 22.705 20.4804 22.8351 20.9004 23.4151C26.9204 31.8951 32.6604 37.3151 32.7104 37.3651C33.2204 37.8451 33.2504 38.655 32.7704 39.175C32.5204 39.445 32.1804 39.5751 31.8404 39.5751V39.585Z" fill="#52BB86"/>
<path d="M39.1104 32.535C38.7404 32.535 38.3804 32.375 38.1304 32.075C38.0804 32.015 32.9904 25.985 24.8704 19.495C24.3204 19.055 24.2304 18.245 24.6704 17.695C25.1104 17.145 25.9204 17.055 26.4704 17.495C34.8104 24.155 39.8804 30.185 40.0904 30.435C40.5404 30.975 40.4704 31.785 39.9304 32.235C39.6904 32.435 39.4004 32.535 39.1104 32.535Z" fill="#52BB86"/>
<path d="M39.4704 32.615C38.9604 32.615 38.4904 32.315 38.2804 31.815C38.1604 31.505 35.2204 24.205 33.2404 13.715C33.1104 13.025 33.5704 12.355 34.2604 12.215C34.9504 12.085 35.6204 12.545 35.7604 13.235C37.6804 23.455 40.6204 30.775 40.6504 30.845C40.9204 31.505 40.6004 32.245 39.9404 32.515C39.7804 32.575 39.6204 32.605 39.4604 32.605L39.4704 32.615Z" fill="#52BB86"/>
<path d="M56.6803 43.465C56.2903 43.465 55.9003 43.285 55.6503 42.945C55.6003 42.885 50.8803 36.565 43.1403 29.615C42.6103 29.145 42.5703 28.335 43.0403 27.805C43.5103 27.275 44.3203 27.235 44.8503 27.705C52.7903 34.845 57.5003 41.145 57.7003 41.415C58.1203 41.985 58.0003 42.785 57.4403 43.205C57.2103 43.375 56.9403 43.455 56.6803 43.455V43.465Z" fill="#52BB86"/>
<path d="M57.0403 43.565C56.5103 43.565 56.0104 43.225 55.8304 42.695C55.7204 42.385 53.2104 34.915 51.8504 24.335C51.7604 23.635 52.2604 22.995 52.9604 22.905C53.6604 22.815 54.3004 23.315 54.3904 24.015C55.7204 34.325 58.2303 41.805 58.2503 41.885C58.4803 42.555 58.1203 43.285 57.4503 43.505C57.3103 43.555 57.1703 43.575 57.0403 43.575V43.565Z" fill="#52BB86"/>
<path d="M43.6903 29.875C43.3903 29.875 43.0803 29.765 42.8403 29.555C42.7803 29.505 36.8703 24.285 27.8803 19.045C27.2703 18.6851 27.0603 17.905 27.4203 17.295C27.7803 16.685 28.5603 16.4751 29.1703 16.8351C38.3903 22.2051 44.2903 27.425 44.5403 27.6451C45.0703 28.1151 45.1203 28.925 44.6503 29.455C44.4003 29.735 44.0503 29.885 43.6903 29.885V29.875Z" fill="#52BB86"/>
<path d="M44.0603 29.8951C43.6203 29.8951 43.1903 29.665 42.9603 29.265C42.7903 28.985 38.8203 22.1851 35.3303 12.0951C35.1003 11.4251 35.4503 10.6951 36.1203 10.4651C36.7903 10.2351 37.5203 10.5851 37.7503 11.2551C41.1503 21.0851 45.1303 27.8951 45.1703 27.965C45.5303 28.5751 45.3303 29.355 44.7203 29.715C44.5203 29.8351 44.2903 29.8951 44.0703 29.8951H44.0603Z" fill="#52BB86"/>
<path d="M53.0203 25.175C52.5303 25.175 52.0603 24.885 51.8503 24.405C51.8203 24.335 48.6303 17.115 42.6603 8.60502C42.2503 8.02502 42.3903 7.22503 42.9703 6.82503C43.5503 6.42503 44.3503 6.55502 44.7503 7.13502C50.8803 15.875 54.0603 23.075 54.1903 23.385C54.4703 24.035 54.1803 24.785 53.5303 25.075C53.3603 25.145 53.1903 25.185 53.0203 25.185V25.175Z" fill="#52BB86"/>
<path d="M53.3503 25.345C52.7003 25.345 52.1403 24.855 52.0803 24.195C52.0503 23.865 51.2803 16.025 52.3303 5.40504C52.4003 4.70504 53.0303 4.19504 53.7303 4.25504C54.4303 4.32504 54.9503 4.95504 54.8803 5.65504C53.8503 16.005 54.6203 23.855 54.6303 23.935C54.7003 24.635 54.1903 25.265 53.4803 25.335C53.4403 25.335 53.3903 25.335 53.3503 25.335V25.345Z" fill="#52BB86"/>
<path d="M66.5703 39.935C66.0503 39.935 65.5603 39.615 65.3703 39.095C65.3403 39.025 62.6203 31.615 57.1903 22.745C56.8203 22.145 57.0103 21.355 57.6103 20.985C58.2203 20.615 59.0003 20.805 59.3703 21.405C64.9403 30.515 67.6503 37.905 67.7703 38.215C68.0103 38.875 67.6703 39.615 67.0103 39.855C66.8703 39.905 66.7203 39.935 66.5703 39.935Z" fill="#52BB86"/>
<path d="M66.8803 40.125C66.2003 40.125 65.6303 39.585 65.6003 38.895C65.5903 38.565 65.3204 30.695 67.0404 20.165C67.1504 19.465 67.8203 18.995 68.5103 19.105C69.2103 19.215 69.6803 19.875 69.5703 20.575C67.8903 30.835 68.1603 38.725 68.1603 38.805C68.1903 39.515 67.6304 40.105 66.9304 40.135C66.9104 40.135 66.9003 40.135 66.8803 40.135V40.125Z" fill="#52BB86"/>
<path d="M58.0003 23.195C57.5703 23.195 57.1503 22.985 56.9103 22.585C56.8703 22.515 52.7003 15.825 45.5803 8.24505C45.1003 7.72505 45.1203 6.91505 45.6403 6.43505C46.1503 5.95505 46.9603 5.97505 47.4503 6.49505C54.7503 14.275 58.9203 20.965 59.0903 21.245C59.4603 21.845 59.2803 22.635 58.6703 23.005C58.4603 23.135 58.2303 23.195 58.0003 23.195Z" fill="#52BB86"/>
<path d="M58.3503 23.3251C57.7703 23.3251 57.2503 22.9351 57.1103 22.3551C57.0303 22.0351 55.1603 14.3851 54.7003 3.72506C54.6703 3.01506 55.2203 2.42506 55.9203 2.39506C56.6203 2.36506 57.2203 2.91506 57.2503 3.61506C57.7003 14.0051 59.5603 21.6651 59.5803 21.7451C59.7503 22.4351 59.3303 23.1251 58.6403 23.2951C58.5403 23.3251 58.4303 23.3351 58.3303 23.3351L58.3503 23.3251Z" fill="#52BB86"/>
<path d="M68.2803 21.355C67.6403 21.355 67.0903 20.875 67.0103 20.2351C67.0103 20.1551 66.0103 12.335 62.7203 2.46505C62.5003 1.79505 62.8603 1.06505 63.5303 0.845049C64.2103 0.625049 64.9303 0.985049 65.1503 1.65505C68.5303 11.775 69.5103 19.595 69.5503 19.925C69.6403 20.625 69.1403 21.265 68.4403 21.355C68.3903 21.355 68.3303 21.355 68.2803 21.355Z" fill="#52BB86"/>
<path d="M68.5503 21.615C68.4703 21.615 68.3903 21.615 68.3103 21.595C67.6203 21.465 67.1603 20.795 67.2903 20.095C67.3503 19.775 68.8603 12.035 72.9003 2.16503C73.1703 1.50503 73.9203 1.19503 74.5703 1.46503C75.2203 1.73503 75.5403 2.48503 75.2703 3.13503C71.3203 12.775 69.8203 20.505 69.8103 20.575C69.6903 21.185 69.1603 21.615 68.5503 21.615Z" fill="#52BB86"/>
<path d="M77.0404 39.565C76.8604 39.565 76.6704 39.525 76.5004 39.445C75.8604 39.145 75.5804 38.385 75.8804 37.745C75.9104 37.675 79.2304 30.515 81.6804 20.415C81.8504 19.725 82.5404 19.305 83.2304 19.475C83.9204 19.645 84.3404 20.335 84.1704 21.025C81.6504 31.395 78.3404 38.545 78.2004 38.835C77.9804 39.305 77.5204 39.575 77.0404 39.575V39.565Z" fill="#52BB86"/>
<path d="M77.1304 39.9251C76.8204 39.9251 76.5004 39.8151 76.2604 39.5851C75.7404 39.1051 75.7104 38.2951 76.1904 37.7751C76.4104 37.5351 81.8004 31.7851 90.4704 25.5651C91.0404 25.1551 91.8404 25.2851 92.2604 25.8551C92.6704 26.4251 92.5404 27.2251 91.9704 27.6451C83.5204 33.7051 78.1304 39.4651 78.0704 39.5151C77.8204 39.7851 77.4804 39.9251 77.1304 39.9251Z" fill="#52BB86"/>
<path d="M82.8404 21.6851C82.7404 21.6851 82.6404 21.6751 82.5404 21.6551C81.8504 21.4951 81.4304 20.8051 81.5904 20.1151C81.6104 20.0351 83.4004 12.3551 83.7504 1.96505C83.7704 1.25505 84.4004 0.715051 85.0704 0.725051C85.7804 0.745051 86.3304 1.34505 86.3104 2.04505C85.9604 12.7151 84.1604 20.3851 84.0904 20.7051C83.9504 21.2951 83.4204 21.6951 82.8404 21.6951V21.6851Z" fill="#52BB86"/>
<path d="M83.0004 22.0151C82.7704 22.0151 82.5404 21.9551 82.3404 21.8251C81.7404 21.4551 81.5403 20.6751 81.9103 20.0651C82.0803 19.7851 86.1803 13.0551 93.4103 5.20506C93.8903 4.68506 94.7004 4.65506 95.2204 5.12506C95.7404 5.60506 95.7703 6.41506 95.3003 6.93506C88.2603 14.5851 84.1504 21.3251 84.1104 21.3851C83.8704 21.7851 83.4503 22.0051 83.0103 22.0051L83.0004 22.0151Z" fill="#52BB86"/>
<path d="M91.4104 27.665C91.1304 27.665 90.8604 27.575 90.6204 27.395C90.0604 26.955 89.9604 26.155 90.4004 25.595C90.4504 25.535 95.2904 19.305 99.9504 10.005C100.27 9.37504 101.03 9.11504 101.67 9.43504C102.3 9.75504 102.56 10.525 102.24 11.155C97.4604 20.695 92.6204 26.915 92.4204 27.175C92.1704 27.495 91.7904 27.665 91.4104 27.665Z" fill="#52BB86"/>
<path d="M91.4103 28.035C91.0003 28.035 90.6003 27.835 90.3503 27.475C89.9503 26.885 90.1103 26.095 90.6903 25.695C90.9603 25.505 97.5003 21.115 107.35 17.005C108 16.735 108.75 17.045 109.02 17.695C109.29 18.345 108.98 19.095 108.33 19.365C98.7203 23.375 92.1803 27.765 92.1203 27.815C91.9003 27.965 91.6503 28.035 91.4003 28.035H91.4103Z" fill="#52BB86"/>
<path d="M62.4903 61.545C62.1503 61.545 61.8003 61.405 61.5503 61.135C61.5003 61.075 56.1203 55.305 47.6803 49.225C47.1103 48.815 46.9803 48.015 47.3903 47.435C47.8103 46.865 48.6103 46.735 49.1803 47.145C57.8403 53.385 63.2103 59.145 63.4303 59.395C63.9103 59.915 63.8803 60.725 63.3603 61.205C63.1103 61.435 62.8003 61.545 62.4903 61.545Z" fill="#52BB86"/>
<path d="M62.8603 61.595C62.3803 61.595 61.9103 61.325 61.7003 60.855C61.5603 60.555 58.2603 53.405 55.7703 43.025C55.6003 42.335 56.0303 41.645 56.7203 41.485C57.4103 41.325 58.1003 41.745 58.2603 42.435C60.6903 52.545 63.9903 59.715 64.0203 59.785C64.3203 60.425 64.0403 61.185 63.4003 61.485C63.2303 61.565 63.0403 61.605 62.8603 61.605V61.595Z" fill="#52BB86"/>
<path d="M72.4004 58.1051C71.8004 58.1051 71.2604 57.6751 71.1404 57.0651C71.1304 56.9851 69.6204 49.2451 65.6804 39.6251C65.4104 38.9751 65.7204 38.2251 66.3804 37.9551C67.0304 37.6851 67.7804 37.9951 68.0504 38.6551C72.0904 48.5351 73.6004 56.2651 73.6604 56.5851C73.7904 57.2751 73.3404 57.9551 72.6404 58.0851C72.5604 58.1051 72.4804 58.1051 72.4004 58.1051Z" fill="#52BB86"/>
<path d="M72.6904 58.345C72.6404 58.345 72.5804 58.345 72.5304 58.345C71.8304 58.255 71.3304 57.615 71.4204 56.915C71.4604 56.585 72.4504 48.775 75.8204 38.645C76.0404 37.975 76.7704 37.615 77.4404 37.835C78.1104 38.055 78.4704 38.785 78.2504 39.455C74.9604 49.325 73.9704 57.145 73.9604 57.225C73.8804 57.875 73.3304 58.345 72.6904 58.345Z" fill="#52BB86"/>
<path d="M74.5704 76.455C74.1404 76.455 73.7304 76.245 73.4904 75.855C73.4504 75.785 69.2304 69.125 62.0604 61.585C61.5704 61.075 61.5904 60.265 62.1004 59.775C62.6104 59.285 63.4204 59.305 63.9104 59.825C71.2704 67.555 75.4804 74.215 75.6504 74.495C76.0304 75.095 75.8504 75.885 75.2504 76.265C75.0404 76.395 74.8004 76.465 74.5704 76.465V76.455Z" fill="#52BB86"/>
<path d="M74.9204 76.575C74.3504 76.575 73.8304 76.185 73.6804 75.615C73.6004 75.295 71.6804 67.655 71.1504 56.995C71.1104 56.285 71.6604 55.685 72.3704 55.655C73.0704 55.625 73.6804 56.165 73.7104 56.865C74.2304 67.275 76.1504 74.9051 76.1704 74.975C76.3404 75.6651 75.9304 76.355 75.2504 76.535C75.1404 76.565 75.0404 76.575 74.9304 76.575H74.9204Z" fill="#52BB86"/>
</svg>
